<?xml version="1.0" encoding="utf-8"?>
<!-- Generator: Adobe Illustrator 27.5.0, SVG Export Plug-In . SVG Version: 6.00 Build 0)  -->
<svg version="1.1" id="Layer_1" xmlns="http://www.w3.org/2000/svg" xmlns:xlink="http://www.w3.org/1999/xlink" x="0px" y="0px"
	 viewBox="0 0 512 512" style="enable-background:new 0 0 512 512;" xml:space="preserve">
<style type="text/css">
	.st0{fill:#32950E;}
</style>
<path class="st0" d="M256,0C114.6,0,0,114.6,0,256s114.6,256,256,256s256-114.6,256-256S397.4,0,256,0z M336.4,176
	c17.7,0,32,14.3,32,32s-14.3,32-32,32s-32-14.3-32-32S318.7,176,336.4,176z M176.4,176c17.7,0,32,14.3,32,32s-14.3,32-32,32
	s-32-14.3-32-32S158.7,176,176.4,176z M375.6,319.9c-18.1,66.6-86.7,106-153.4,87.9c-42.8-11.6-76.3-45.1-87.9-87.9
	c-2.1-7.5,2.4-15.3,9.9-17.4c1.2-0.3,2.5-0.5,3.8-0.5h0.1c6.2,0,11.6,4.1,13.4,10c15.2,51.7,69.4,81.2,121.1,66
	c31.8-9.4,56.7-34.2,66-66c1.8-5.9,7.2-10,13.4-10c7.8,0,14.1,6.4,14.1,14.1C376.1,317.4,376,318.7,375.6,319.9z"/>
</svg>
