<?xml version="1.0" encoding="utf-8"?>
<!-- Generator: Adobe Illustrator 27.5.0, SVG Export Plug-In . SVG Version: 6.00 Build 0)  -->
<svg version="1.1" id="Layer_1" xmlns="http://www.w3.org/2000/svg" xmlns:xlink="http://www.w3.org/1999/xlink" x="0px" y="0px"
	 viewBox="0 0 512 512" style="enable-background:new 0 0 512 512;" xml:space="preserve">
<style type="text/css">
	.st0{fill:#EED21B;}
</style>
<path class="st0" d="M256,512c141.4,0,256-114.6,256-256S397.4,0,256,0S0,114.6,0,256S114.6,512,256,512z M144.4,208
	c0-17.7,14.3-32,32-32s32,14.3,32,32s-14.3,32-32,32S144.4,225.7,144.4,208z M336.4,176c17.7,0,32,14.3,32,32s-14.3,32-32,32
	s-32-14.3-32-32S318.7,176,336.4,176z M358.4,367.1h-206c-9.1,0-16.5-7.4-16.5-16.5l0,0l0,0c0-9.1,7.4-16.5,16.5-16.5h206
	c9.1,0,16.5,7.4,16.5,16.4c0,0,0,0,0,0l0,0C374.9,359.7,367.5,367.1,358.4,367.1L358.4,367.1z"/>
</svg>
