<svg id="Layer_1" data-name="Layer 1" xmlns="http://www.w3.org/2000/svg" viewBox="0 0 512 512"><defs><style>.cls-1{fill:#fff;}</style></defs><path d="M256,512c141.38,0,256-114.62,256-256S397.38,0,256,0,0,114.62,0,256,114.62,512,256,512ZM144.4,208a32,32,0,1,1,32,32A32,32,0,0,1,144.4,208Zm192-32a32,32,0,1,1-32,32A32,32,0,0,1,336.4,176Z"/><path class="cls-1" d="M148,412a14.12,14.12,0,0,1-13.59-17.86,125,125,0,0,1,241.28,0A14.12,14.12,0,0,1,362.05,412h0a14,14,0,0,1-13.49-10,97.53,97.53,0,0,0-187.12,0A14,14,0,0,1,148,412Z"/></svg>