<?xml version="1.0" encoding="utf-8"?>
<!-- Generator: Adobe Illustrator 27.5.0, SVG Export Plug-In . SVG Version: 6.00 Build 0)  -->
<svg version="1.1" id="Layer_1" xmlns="http://www.w3.org/2000/svg" xmlns:xlink="http://www.w3.org/1999/xlink" x="0px" y="0px"
	 viewBox="0 0 512 512" style="enable-background:new 0 0 512 512;" xml:space="preserve">
<style type="text/css">
	.st0{fill:#EC5E11;}
</style>
<path class="st0" d="M256,512c141.4,0,256-114.6,256-256S397.4,0,256,0S0,114.6,0,256S114.6,512,256,512z M347.9,394.5
	C330,373.8,299.4,352,256,352s-74,21.8-91.9,42.5c-5.8,6.7-15.9,7.4-22.6,1.6s-7.4-15.9-1.6-22.6c22.3-25.6,61-53.5,116.1-53.5
	s93.8,27.9,116.1,53.5c5.8,6.7,5.1,16.8-1.6,22.6S353.7,401.2,347.9,394.5z M144.4,208c0-17.7,14.3-32,32-32s32,14.3,32,32
	s-14.3,32-32,32S144.4,225.7,144.4,208z M336.4,176c17.7,0,32,14.3,32,32s-14.3,32-32,32s-32-14.3-32-32S318.7,176,336.4,176z"/>
</svg>
